<?xml version="1.0" encoding="UTF-8"?>
<svg width="128px" height="128px" viewBox="0 0 128 128" version="1.1" xmlns="http://www.w3.org/2000/svg" xmlns:xlink="http://www.w3.org/1999/xlink">
    <title>AgreeToTerms</title>
    <defs>
        <path d="M16.7395161,32.2258065 C25.638404,32.2258065 32.8524194,25.0117911 32.8524194,16.1129032 C32.8524194,7.21401532 25.638404,0 16.7395161,0 C7.84053871,0 0.626612903,7.21401532 0.626612903,16.1129032 C0.626612903,25.0117911 7.84053871,32.2258065 16.7395161,32.2258065 Z" id="path-1"></path>
        <linearGradient x1="79.9996364%" y1="20.0014545%" x2="45.4527273%" y2="54.544%" id="linearGradient-3">
            <stop stop-color="#B10910" offset="0%"></stop>
            <stop stop-color="#B10910" stop-opacity="0" offset="100%"></stop>
        </linearGradient>
    </defs>
    <g id="AgreeToTerms" stroke="none" stroke-width="1" fill="none" fill-rule="evenodd">
        <g transform="translate(14.000000, 29.000000)">
            <path d="M55.4185403,63.5775774 C55.2813121,65.2141113 54.7221944,66.7870887 53.7956129,68.1429 C53.8600645,68.1402145 53.91825,68.1178355 53.9818065,68.1160452 C61.1824839,67.471529 67.6330161,64.6052226 72.5116452,60.1696984 L73.1883871,67.9602871 L99.3199355,67.9602871 L96.8895726,39.083279 C96.2638548,31.7554887 89.9341694,26.2797871 82.7737742,26.9028194 C77.0053548,27.7030935 72.1025565,31.0402548 70.8609677,40.1028677 C69.4815242,50.1850694 62.6451774,56.2220371 53.7096774,57.2756419 C55.0047073,59.1090218 55.6099258,61.341196 55.4185403,63.5775774 Z" id="Path" fill="#E0E8EE"></path>
            <path d="M78.2917911,24.3149081 C84.8407911,23.7276823 89.6871048,17.8196177 89.1142911,11.11665 C88.5404927,4.41549944 82.7684927,-0.539220097 76.2132266,0.0471101008 C69.6695976,0.633441194 64.8196137,6.53703169 65.3925169,13.2417629 C65.9654202,19.9420452 71.741896,24.903029 78.2917911,24.3149081 Z" id="Path" fill="#E0E8EE"></path>
            <path d="M26.6113548,64.9373274 C21.9851613,61.4506742 18.4233145,56.8719242 16.3331129,51.321029 L19.8895887,49.9478516 C24.026129,60.2851742 33.8254597,67.1116742 45.6022016,68.1643839 C48.7746532,68.370271 51.1065484,66.0661258 51.3491371,63.2409968 C51.6015726,60.256529 49.4442339,57.6328113 46.5242177,57.3723194 C37.2037984,56.538029 29.9637339,50.3632065 28.6854435,39.8853435 C27.8726371,33.2253435 23.4935081,27.5088435 16.8084435,26.9090855 C9.27655645,26.2323435 3.30045968,31.9631661 2.70965323,38.8926097 L0,67.9665532 L26.3437016,67.9665532 L26.6113548,64.9373274 Z" id="Path" fill="#324B92"></path>
            <path d="M22.7916121,24.3149081 C29.3415073,23.7276823 34.1870153,17.8196177 33.6141121,11.11665 C33.0403137,4.41549944 27.2656282,-0.539220097 20.7139427,0.0471101008 C14.1667331,0.633441194 9.31853952,6.53703169 9.89144274,13.2417629 C10.464346,19.9420452 16.2426121,24.903029 22.7907169,24.3149081" id="Path" fill="#324B92"></path>
            <g id="Group" transform="translate(33.120968, 22.379032)">
                <path d="M16.7395161,32.2258065 C25.638404,32.2258065 32.8524194,25.0117911 32.8524194,16.1129032 C32.8524194,7.21401532 25.638404,0 16.7395161,0 C7.84053871,0 0.626612903,7.21401532 0.626612903,16.1129032 C0.626612903,25.0117911 7.84053871,32.2258065 16.7395161,32.2258065 Z" id="Path" fill="#DC0D16" fill-rule="nonzero"></path>
                <polygon id="Path" fill="#FFFFFF" fill-rule="nonzero" points="15.8443548 6.26612903 10.4733871 6.26612903 20.3201613 16.1129032 10.4733871 25.9595879 15.8443548 25.9595879 25.691129 16.1129032"></polygon>
                <g id="Clipped">
                    <mask id="mask-2" fill="white">
                        <use xlink:href="#path-1"></use>
                    </mask>
                    <g id="Path"></g>
                    <polygon id="Path" fill="url(#linearGradient-3)" fill-rule="nonzero" mask="url(#mask-2)" points="20.3201613 16.1129032 10.4733871 25.9595879 5.54991048 30.8830645 -4.29677419 21.0362903 10.4733871 6.26612903"></polygon>
                </g>
            </g>
        </g>
    </g>
</svg>