<?xml version="1.0" encoding="UTF-8"?>
<svg width="128px" height="128px" viewBox="0 0 128 128" version="1.1" xmlns="http://www.w3.org/2000/svg" xmlns:xlink="http://www.w3.org/1999/xlink">
    <title>BuyerMakesPayment</title>
    <g id="BuyerMakesPayment" stroke="none" stroke-width="1" fill="none" fill-rule="evenodd">
        <g id="Group" transform="translate(14.000000, 13.000000)">
            <polygon id="Path" fill="#E0E8EE" points="62.7015 14.9331 100.374 36.6831 100.374 80.1831 62.7015 101.933 25.0295 80.1831 25.0295 36.6831"></polygon>
            <path d="M37.5261,67.25 L4.61709,48.25 C3.42136,47.5596 1.89238,47.9693 1.20203,49.1651 C0.51167,50.3608 0.92136,51.8898 2.11709,52.5801 L35.0261,71.5801 C36.2218,72.2705 37.7508,71.8608 38.4411,70.6651 C39.1315,69.4693 38.7218,67.9404 37.5261,67.25 Z" id="Path" fill="#324B92" fill-rule="nonzero"></path>
            <path d="M34.6123,43.5274 L11.6159,30.2504 C10.4201,29.56 8.89116,29.9697 8.20081,31.1654 C7.51045,32.3612 7.92014,33.8901 9.1159,34.5805 L32.1123,47.8575 C33.308,48.5478 34.837,48.1382 35.5274,46.9424 C36.2177,45.7467 35.808,44.2177 34.6123,43.5274 Z" id="Path" fill="#324B92" fill-rule="nonzero"></path>
            <polygon id="Path" fill="#F20F18" points="49.7155 21.9331 38.2015 28.5901 76.1165 51.5601 76.1465 63.0461 78.9145 60.2311 80.6065 60.6311 82.5285 58.1411 84.2185 58.5571 86.1395 56.0501 88.2015 56.5431 88.1715 44.5971 49.7215 21.9331"></polygon>
            <path d="M34.0317,17.84 L22.6166,11.2495 C21.4209,10.5591 19.8919,10.9688 19.2015,12.1646 C18.5112,13.3603 18.9209,14.8893 20.1166,15.5796 L31.5317,22.1701 C32.7274,22.8605 34.2564,22.4508 34.9467,21.2551 C35.6371,20.0593 35.2274,18.5304 34.0317,17.84 Z" id="Path" fill="#324B92" fill-rule="nonzero"></path>
            <path d="M50.1127,10.774 L33.6166,1.25 C32.4209,0.559644 30.8919,0.969332 30.2015,2.16506 C29.5112,3.3608 29.9209,4.88977 31.1166,5.58013 L47.6127,15.1041 C48.8084,15.7945 50.3374,15.3848 51.0277,14.1891 C51.7181,12.9933 51.3084,11.4644 50.1127,10.774 Z" id="Path" fill="#324B92" fill-rule="nonzero"></path>
        </g>
    </g>
</svg>