<?xml version="1.0" encoding="UTF-8"?>
<svg width="128px" height="128px" viewBox="0 0 128 128" version="1.1" xmlns="http://www.w3.org/2000/svg" xmlns:xlink="http://www.w3.org/1999/xlink">
    <title>SellerApprovesPayment</title>
    <defs>
        <polygon id="path-1" points="0.8218 0.005 16.8498 0.005 16.8498 17.601 0.8218 17.601"></polygon>
    </defs>
    <g id="SellerApprovesPayment" stroke="none" stroke-width="1" fill="none" fill-rule="evenodd">
        <g id="Group" transform="translate(21.000000, 13.000000)">
            <g id="Head" transform="translate(16.379800, 0.000000)" fill="#324B92">
                <path d="M7.10542736e-15,47.339 L53.36,47.339 C48.868,40.039 38.614,35 26.68,35 C14.748,35 4.495,40.038 7.10542736e-15,47.339 Z" id="Path"></path>
                <path d="M41.554,16.03 C41.554,7.178 34.492,0 25.774,0 C17.062,0 10,7.178 10,16.03 C10,24.882 17.062,32.06 25.774,32.06 C34.492,32.06 41.554,24.882 41.554,16.03 Z" id="Path"></path>
            </g>
            <polygon id="Card" fill="#E0E8EE" points="8.3798 51 76.3798 51 76.3798 103 8.3798 103"></polygon>
            <path d="M18.7479,80.248 C18.9179,75.412 15.2669,70.92 10.5439,71.001 C9.9359,71.011 8.4639,71.131 7.85985,71.208 C3.05785,71.8 2.60585,75.012 2.42485,79.938 C2.25085,84.793 2.36085,89.12 6.99785,89.054 C7.60485,89.045 9.0369,88.884 9.6429,88.846 C14.3889,88.553 18.5699,85.175 18.7479,80.248 Z" id="Path" fill="#324B92"></path>
            <g id="Clipped" transform="translate(66.000000, 71.000000)">
                <mask id="mask-2" fill="white">
                    <use xlink:href="#path-1"></use>
                </mask>
                <g id="Path"></g>
                <path d="M11.4798,0.208 C10.8888,0.152 9.4518,0.015 8.8558,0.006 C4.2338,-0.072 0.6548,4.305 0.8278,9.018 C1.0008,13.818 5.0918,17.108 9.7398,17.398 C10.3298,17.433 11.7348,17.591 12.3298,17.6 C16.8658,17.665 16.9748,13.446 16.8068,8.714 C16.6278,3.915 16.2438,0.634 11.4798,0.208 Z" id="Path" fill="#324B92" mask="url(#mask-2)"></path>
            </g>
            <path d="M43.3798,95.614 C53.3209,95.614 61.3798,87.6415 61.3798,77.807 C61.3798,67.9725 53.3209,60 43.3798,60 C33.4386,60 25.3798,67.9725 25.3798,77.807 C25.3798,87.6415 33.4386,95.614 43.3798,95.614 Z" id="Path" fill="#F20F18" fill-rule="nonzero"></path>
            <polyline id="Path" stroke="#FFFFFF" stroke-width="3" stroke-linecap="round" stroke-linejoin="round" points="52.3798 73 41.3798 84 36.3798 79"></polyline>
            <path d="M4.43985,73.238 C2.02585,77.376 1.37985,83.89 4.43985,87.2 C7.49985,90.508 14.2899,88.972 17.1199,84.175 C19.9489,79.379 17.1199,74.802 15.8969,73.238 C14.6749,71.674 6.85285,69.1 4.43985,73.238 Z" id="Path" fill="#324B92" fill-rule="nonzero"></path>
            <path d="M2.7118,72.23 C4.2868,69.53 7.3438,68.645 10.8798,69.117 C13.6128,69.482 16.4248,70.665 17.4728,72.007 C20.3728,75.717 21.6178,80.486 18.8428,85.191 C15.4068,91.017 7.0558,92.973 2.9718,88.558 C-0.5642,84.736 -0.3342,77.452 2.7118,72.23 L2.7118,72.23 Z" id="Path" stroke="#FFFFFF" stroke-width="4"></path>
            <path d="M83.2043,84.8535 C85.1727,80.4868 85.134,73.939 81.7449,70.9679 C78.3559,67.9979 71.7636,70.2353 69.4505,75.3018 C67.1385,80.3682 70.4303,84.6234 71.8101,86.051 C73.1889,87.4787 81.2371,89.221 83.2043,84.8535 Z" id="Path" fill="#324B92" fill-rule="nonzero"></path>
            <path d="M85.0282,85.6753 C83.744,88.5251 80.7963,89.7248 77.2303,89.625 C74.4741,89.5477 71.5539,88.6651 70.3713,87.44 C67.0995,84.0545 65.3629,79.4417 67.6307,74.4715 C70.4399,68.3181 78.5397,65.5 83.0629,69.4639 C86.9791,72.8964 87.5116,80.1635 85.0282,85.6753 L85.0282,85.6753 Z" id="Path" stroke="#FFFFFF" stroke-width="4"></path>
        </g>
    </g>
</svg>