<?xml version="1.0" encoding="UTF-8"?>
<svg width="128px" height="128px" viewBox="0 0 128 128" version="1.1" xmlns="http://www.w3.org/2000/svg" xmlns:xlink="http://www.w3.org/1999/xlink">
    <title>SellerSubmitsPayment</title>
    <defs>
        <path d="M48.3585322,94.7826087 C74.6490446,94.7826087 95.9619174,73.5647319 95.9619174,47.3913043 C95.9619174,21.2178768 74.6490446,0 48.3585322,0 C22.0680198,0 0.755226446,21.2178768 0.755226446,47.3913043 C0.755226446,73.5647319 22.0680198,94.7826087 48.3585322,94.7826087 Z" id="path-1"></path>
        <path d="M7.85446612,14.2173913 C11.7980826,14.2173913 14.994962,11.0347493 14.994962,7.10869565 C14.994962,3.18264203 11.7980826,0 7.85446612,0 C3.91084959,0 0.713970248,3.18264203 0.713970248,7.10869565 C0.713970248,11.0347493 3.91084959,14.2173913 7.85446612,14.2173913 Z" id="path-3"></path>
        <linearGradient x1="80%" y1="20.2680568%" x2="45.4530909%" y2="54.5036167%" id="linearGradient-5">
            <stop stop-color="#B10910" offset="0%"></stop>
            <stop stop-color="#B10910" stop-opacity="0" offset="100%"></stop>
        </linearGradient>
    </defs>
    <g id="SellerSubmitsPayment" stroke="none" stroke-width="1" fill="none" fill-rule="evenodd">
        <g id="Group" transform="translate(16.000000, 10.000000)">
            <g id="Clipped">
                <mask id="mask-2" fill="white">
                    <use xlink:href="#path-1"></use>
                </mask>
                <g id="Path"></g>
                <g id="Group" mask="url(#mask-2)">
                    <g transform="translate(16.661157, 11.057971)">
                        <path d="M53.2450116,11.8991667 C52.5936397,12.0634565 51.5654083,12.4907681 50.7386975,12.8469928 L50.7386975,21.6973188 L54.7683174,19.685558 C56.7343339,18.8206667 57.6594248,16.4447826 56.8406479,14.3753623 C56.1694413,12.6945507 54.4588959,11.591913 53.2450116,11.8991667 Z" id="Path" fill="#E0E8EE"></path>
                        <path d="M13.2852893,60.5645072 C12.6053554,59.5297971 12.288,58.4445362 12.8457521,57.1839275 C13.2606942,56.2455797 14.4119008,55.1010797 16.0169256,54.2346087 C14.4650579,52.9976957 13.4725289,51.0309565 13.4725289,48.8446377 L13.4725289,10.8154855 C11.4922314,7.06999275 7.74347107,6.60002899 6.2534876,7.50204348 C4.58181818,8.51700725 8.2837686,14.9740725 4.3065124,26.9482754 C2.65943802,31.8840797 1.13057851,36.7029855 0.822743802,40.7968043 C0.0396694215,51.1691812 6.18446281,58.1751957 13.2852893,60.5645072 Z" id="Path" fill="#E0E8EE"></path>
                        <path d="M38.0444826,44.2318841 L38.0444826,48.6495435 C38.5994579,48.4978123 39.1723636,48.4210384 39.7478876,48.4212754 C40.5084298,48.4161413 41.2643702,48.5392007 41.9836562,48.7853986 C41.731914,48.0423819 41.6320264,47.256713 41.6899438,46.4746775 C41.7478612,45.692721 41.9623934,44.9301159 42.3208463,44.2318841 L38.0444826,44.2318841 Z" id="Path" fill="#172C67"></path>
                        <path d="M33.0224132,5.64351449 L30.9040661,5.64351449 C30.3566281,5.64351449 29.9123306,5.1932971 29.9123306,4.6396087 C29.9123306,4.08355072 30.3566281,3.63412319 30.9040661,3.63412319 L33.0224132,3.63412319 C33.153719,3.63538696 33.2835967,3.66232101 33.4044298,3.71358261 C33.5252628,3.76476522 33.6348298,3.83916957 33.7267835,3.93260942 C33.8187372,4.02597029 33.8913322,4.13647101 33.9403636,4.25779275 C33.989395,4.37911449 34.0139107,4.5088087 34.012562,4.6396087 C34.012562,5.19250725 33.5682645,5.64272464 33.0216198,5.64272464 L33.0224132,5.64351449 Z M44.6027107,0.862521739 C40.0645289,0.428101449 36.0547438,0.206942029 32.0314711,0.206942029 C28.0153388,0.206942029 23.9841322,0.428101449 19.4007273,0.869630435 C17.4426446,1.12396377 15.9098182,3.01724638 15.9098182,5.17592029 L15.9098182,49.5231232 C15.9098182,51.6794275 17.4402645,53.5735 19.4419835,53.8341522 C21.5333554,54.0371449 23.5779174,54.1848478 25.6050248,54.2922681 L25.6050248,43.7761377 L19.0698843,43.7761377 L19.0698843,8.55176087 L44.8930909,8.55176087 L44.8930909,23.5400507 L48.1356694,22.0440652 L48.1356694,5.17592029 C48.1356694,3.01487681 46.6004628,1.12396377 44.6027107,0.862521739 Z" id="Shape" fill="#172C67"></path>
                        <path d="M50.7688463,41.8623188 C50.3642182,41.8623188 49.9659372,41.9413043 49.608119,42.1008551 L46.2893752,43.5778841 C44.7129124,44.2697971 43.9750612,46.1686087 44.6311934,47.8257246 C45.1651438,49.1708478 46.3663339,49.8082609 47.5056397,49.8082609 C47.9118545,49.8082609 48.3085488,49.7284855 48.6663669,49.5713043 L51.9866975,48.0942754 C53.5615736,47.4023623 54.2994248,45.5003913 53.6448793,43.8464348 C53.1101355,42.4981522 51.912119,41.8623188 50.7688463,41.8623188 Z" id="Path" fill="#E0E8EE"></path>
                        <path d="M54.6279669,34.5766957 C54.0360992,33.0862391 52.7071736,32.384058 51.4448926,32.384058 C50.9974215,32.384058 50.5586777,32.470942 50.1643636,32.6447101 L46.4909752,34.2812899 C44.750281,35.0435 43.9307107,37.1484638 44.6566612,38.9817174 C45.2493223,40.4698043 46.5766612,41.1719855 47.8381488,41.1719855 C48.2872066,41.1719855 48.7275372,41.0843116 49.1226446,40.9089638 L52.7944463,39.2755435 C54.5375207,38.5117536 55.3523306,36.4083696 54.6287603,34.5759058" id="Path" fill="#E0E8EE"></path>
                        <path d="M48.9805488,23.9586739 L46.4893091,25.1181812 C44.7478215,25.881971 43.9306314,27.9853551 44.6557884,29.8154493 C45.249243,31.3051159 46.5765818,32.0096667 47.8380694,32.0096667 C48.2871273,32.0096667 48.7258711,31.9212029 49.1209785,31.7474348 L51.609838,30.5895072 C53.3529124,29.8217681 54.1701025,27.7175942 53.4441521,25.8898696 C52.8522843,24.3986232 51.5241521,23.6956522 50.2626645,23.6956522 C49.8144,23.6956522 49.3756562,23.7841159 48.9805488,23.9586739 Z" id="Path" fill="#E0E8EE"></path>
                        <path d="M56.074314,56.6073333 C54.4637355,56.6073333 53.0816529,57.5693768 52.4469421,58.9626812 L52.4469421,56.5338768 C52.4469421,54.2180217 50.5967603,52.3373768 48.3213223,52.3373768 C46.435438,52.3373768 44.846281,53.6272101 44.3559669,55.3901667 C44.3559669,52.3057826 42.936595,50.2845435 40.2398678,50.2845435 C38.1873719,50.2845435 36.4950744,51.8065942 36.1745455,53.7986087 L36.1745455,36.5797681 C36.1745455,34.2615435 34.3267438,32.384058 32.0520992,32.384058 C29.774281,32.384058 27.9296529,34.2615435 27.9296529,36.5797681 L27.9296529,63.2792391 C25.386843,58.3631812 22.4806612,56.3206159 19.900562,56.3206159 L19.8267769,56.3206159 C17.3831405,56.3577391 15.4742479,57.8963768 15.096595,58.7549493 C14.3785785,60.3686232 20.2401322,63.0201667 24.3935207,73.4738986 C28.8904463,84.7719855 32.5376529,90.4557826 43.5395702,90.4557826 C55.5951074,90.4557826 60.0888595,81.8613696 60.0888595,76.3205362 L60.0888595,60.6956232 C60.0888595,58.4342681 58.2934215,56.6073333 56.074314,56.6073333 Z" id="Path" fill="#172C67"></path>
                    </g>
                </g>
            </g>
            <path d="M48.3585322,94.7826087 C74.6490446,94.7826087 95.9619174,73.5647319 95.9619174,47.3913043 C95.9619174,21.2178768 74.6490446,0 48.3585322,0 C22.0680198,0 0.755226446,21.2178768 0.755226446,47.3913043 C0.755226446,73.5647319 22.0680198,94.7826087 48.3585322,94.7826087 Z" id="Path" stroke="#F20F18" stroke-width="3" stroke-linecap="square" stroke-dasharray="2"></path>
            <path d="M48.3585322,108.695116 C56.245686,108.695116 62.639524,102.398391 62.639524,94.6301667 C62.639524,86.861942 56.245686,80.5652174 48.3585322,80.5652174 C40.4713785,80.5652174 34.0775405,86.861942 34.0775405,94.6301667 C34.0775405,102.398391 40.4713785,108.695116 48.3585322,108.695116 Z" id="Path" fill="#000000" fill-rule="nonzero"></path>
            <path d="M48.3585322,108.695116 C56.245686,108.695116 62.639524,102.398391 62.639524,94.6301667 C62.639524,86.861942 56.245686,80.5652174 48.3585322,80.5652174 C40.4713785,80.5652174 34.0775405,86.861942 34.0775405,94.6301667 C34.0775405,102.398391 40.4713785,108.695116 48.3585322,108.695116 Z" id="Path" fill="#F20F18" fill-rule="nonzero"></path>
            <path d="M52.3254744,93.1254928 L45.1849785,93.1254928 C44.3086017,93.1254928 43.5982017,93.832413 43.5982017,94.7052029 L43.5982017,97.8203913 C43.5982017,98.6931812 44.3086017,99.4001014 45.1849785,99.4001014 L52.3254744,99.4001014 C53.2018512,99.4001014 53.9122512,98.6931812 53.9122512,97.8203913 L53.9122512,94.7052029 C53.9122512,93.832413 53.2018512,93.1254928 52.3254744,93.1254928 Z" id="Path" stroke="#FFFFFF" stroke-width="2" stroke-linecap="round" stroke-linejoin="round"></path>
            <path d="M45.8902215,93.1254928 L45.8902215,90.8436014 C45.8902215,90.4692101 45.964324,90.0979783 46.108324,89.7520217 C46.252324,89.4060652 46.463286,89.0917029 46.7293884,88.8271014 C46.9954116,88.5617101 47.3111802,88.3516087 47.658843,88.2086449 C48.0064264,88.0648913 48.3789223,87.9914348 48.7551471,87.9914348 C49.1313719,87.9914348 49.5039471,88.0648913 49.8515306,88.2086449 C50.199114,88.3516087 50.514962,88.5617101 50.7809851,88.8271014 C51.0470083,89.0917029 51.2580496,89.4060652 51.4019702,89.7520217 C51.5459702,90.0979783 51.6200727,90.4692101 51.6200727,90.8436014 L51.6200727,93.1254928" id="Path" stroke="#FFFFFF" stroke-width="2" stroke-linecap="round" stroke-linejoin="round"></path>
            <g transform="translate(41.256198, 25.275362)">
                <path d="M7.85446612,14.2173913 C11.7980826,14.2173913 14.994962,11.0347493 14.994962,7.10869565 C14.994962,3.18264203 11.7980826,0 7.85446612,0 C3.91084959,0 0.713970248,3.18264203 0.713970248,7.10869565 C0.713970248,11.0347493 3.91084959,14.2173913 7.85446612,14.2173913 Z" id="Path" fill="#DC0D16" fill-rule="nonzero"></path>
                <polygon id="Path" fill="#FFFFFF" fill-rule="nonzero" points="7.4577719 2.76449275 5.07760661 2.76449275 9.44124298 7.10869565 5.07760661 11.4528196 7.4577719 11.4528196 11.8214083 7.10869565"></polygon>
                <g id="Clipped">
                    <mask id="mask-4" fill="white">
                        <use xlink:href="#path-3"></use>
                    </mask>
                    <g id="Path"></g>
                    <polygon id="Path" fill="url(#linearGradient-5)" fill-rule="nonzero" mask="url(#mask-4)" points="9.44124298 7.10869565 5.07760661 11.4528196 2.89578843 13.625 -1.46784793 9.2807971 5.07760661 2.76449275"></polygon>
                </g>
            </g>
        </g>
    </g>
</svg>